<svg version="1.1" id="Layer_1" xmlns="http://www.w3.org/2000/svg" xmlns:xlink="http://www.w3.org/1999/xlink" x="0px" y="0px"
	 width="100%" viewBox="0 0 600 600" enable-background="new 0 0 600 600" xml:space="preserve">
<path fill="#000000" opacity="1.000000" stroke="none" 
	d="
M295.000000,601.000000 
	C196.666672,601.000000 98.833336,601.000000 1.000000,601.000000 
	C1.000000,401.000000 1.000000,201.000000 1.000000,1.000000 
	C201.000000,1.000000 401.000000,1.000000 601.000000,1.000000 
	C601.000000,201.000000 601.000000,401.000000 601.000000,601.000000 
	C499.166656,601.000000 397.333344,601.000000 295.000000,601.000000 
M219.268417,207.966049 
	C218.149338,208.612930 217.030258,209.259811 215.213089,209.986374 
	C213.448303,211.311386 211.683517,212.636414 209.374100,214.146027 
	C208.901031,214.732529 208.427963,215.319031 207.265701,216.163620 
	C206.147202,218.429382 205.028702,220.695160 203.210983,223.372986 
	C202.694244,231.378586 203.933182,233.213333 212.495529,237.122742 
	C220.974274,240.993958 225.070404,239.236374 229.078369,230.964798 
	C231.303726,226.372147 234.260086,221.970657 240.786285,220.982132 
	C248.768341,217.956284 255.882599,222.140762 259.688995,229.494583 
	C262.580627,235.081116 259.539307,241.817444 253.084442,245.303787 
	C250.459549,246.721512 247.618942,247.739868 244.058548,248.981628 
	C240.379303,249.700775 236.700058,250.419937 232.250504,251.010742 
	C224.462708,254.657822 216.674911,258.304901 208.421890,262.086334 
	C208.122543,262.275635 207.968262,262.547363 207.440384,263.052399 
	C207.267303,263.353943 207.094208,263.655518 206.996384,263.999512 
	C206.996384,263.999512 206.946671,263.929016 206.338379,264.144470 
	C205.196304,265.406586 204.054214,266.668671 202.993011,267.996552 
	C202.993011,267.996552 202.931564,267.912384 202.334808,268.136566 
	C202.183517,268.742462 202.032227,269.348389 201.241989,270.262726 
	C191.365295,284.436676 194.900085,309.975128 214.643890,317.203491 
	C223.656830,320.503235 232.725250,320.920776 242.697037,318.886200 
	C245.235428,318.146393 248.407471,318.109833 250.176361,316.516022 
	C253.547256,313.478760 259.173859,312.681458 260.793793,306.996826 
	C262.076050,306.094727 263.358307,305.192657 264.537323,304.363190 
	C265.018829,305.624969 265.492432,306.866058 265.987701,308.803589 
	C266.984802,310.220428 267.981903,311.637299 269.098297,313.543488 
	C269.379486,313.703308 269.660675,313.863129 270.180237,314.712494 
	C273.380829,316.086029 276.518036,318.412415 279.795502,318.630524 
	C286.195435,319.056305 293.067200,320.926544 298.952026,315.314880 
	C298.915436,314.865295 298.878845,314.415680 298.972870,313.225861 
	C298.393036,311.737885 298.217621,309.821198 297.168030,308.831207 
	C290.084595,302.149780 289.145050,293.453522 289.056549,284.562164 
	C288.904205,269.263184 289.274933,253.955414 288.912903,238.663452 
	C288.685333,229.049316 286.016968,220.073639 278.177826,212.739319 
	C276.811951,211.800217 275.446106,210.861115 273.764160,209.271881 
	C256.863922,200.512405 239.536774,200.898224 221.356277,207.007736 
	C220.890900,207.306320 220.425537,207.604904 219.268417,207.966049 
M291.725952,402.056732 
	C292.483765,401.993469 293.241577,401.930176 294.498260,401.962921 
	C294.664307,401.929779 294.830383,401.896637 295.784973,402.042938 
	C296.856049,401.981323 297.927155,401.919708 299.497620,401.954437 
	C299.664124,401.922546 299.830627,401.890625 300.815704,402.043518 
	C302.207733,401.985870 303.599762,401.928223 305.738159,401.976898 
	C306.488708,401.938232 307.239258,401.899597 308.493652,401.993683 
	C308.665619,401.717194 308.837616,401.440735 309.711182,400.797607 
	C310.137970,399.131683 311.165985,397.358337 310.890717,395.817871 
	C309.465729,387.843811 304.792694,382.015381 296.960754,380.221680 
	C290.044983,378.637817 283.479950,380.512756 278.301697,386.145447 
	C272.519012,392.435699 271.401154,404.157135 275.132568,411.705353 
	C280.447510,422.456818 299.680725,426.519806 307.781158,415.830505 
	C310.869232,411.755493 311.130127,410.949585 306.305481,407.876221 
	C305.539124,409.301666 304.843811,410.742279 304.018219,412.103882 
	C301.143494,416.845215 294.129761,419.097260 289.408386,416.838287 
	C284.844940,414.654877 282.019806,406.784241 284.813385,402.058441 
	C285.868134,401.997192 286.922913,401.935913 288.725830,401.978943 
	C289.477875,401.945007 290.229889,401.911072 291.725952,402.056732 
M169.997620,421.005219 
	C169.997620,421.005219 170.038895,421.053711 170.800964,420.950775 
	C175.046722,420.080902 178.802139,418.258728 180.310593,413.988770 
	C180.746475,412.754852 179.266052,410.843994 178.664169,409.243469 
	C177.507462,409.922119 176.045334,410.358704 175.268692,411.338593 
	C174.217606,412.664673 173.692551,414.407715 172.145950,416.048248 
	C163.028687,419.495300 158.005814,417.121704 154.960388,408.004883 
	C153.077896,402.369476 154.161972,397.054413 155.807022,391.506561 
	C157.296494,386.483429 161.705185,384.046692 165.236954,384.007538 
	C170.765579,383.946228 171.503876,388.251038 172.087921,392.458801 
	C172.534897,395.678986 175.641663,397.059448 178.270050,395.203552 
	C182.691238,392.081726 181.444641,386.417023 176.017181,382.958282 
	C166.066345,376.616974 150.516006,380.513489 145.525177,392.723511 
	C140.196259,405.760620 149.263367,419.531097 160.042343,421.572723 
	C160.358170,421.661682 160.674011,421.750610 161.873444,421.963684 
	C164.250778,421.915344 166.628098,421.866974 169.537613,421.937134 
	C169.709717,421.636261 169.881821,421.335419 169.997620,421.005219 
M212.088181,385.557983 
	C212.373749,385.712433 212.659302,385.866882 213.039963,386.859009 
	C213.371719,388.240753 213.763931,389.611298 214.023087,391.006531 
	C214.626648,394.256256 213.109528,395.486328 209.948517,396.148712 
	C205.022675,397.180878 200.175934,398.695862 195.402023,400.319000 
	C190.341507,402.039581 187.166367,408.829010 188.454025,414.038025 
	C189.339783,417.621277 196.022354,422.459808 200.520676,421.839691 
	C205.418747,421.164429 210.180267,419.498718 215.058167,418.250275 
	C216.342102,422.404877 222.072525,423.567200 227.489822,419.428894 
	C222.086136,417.283447 222.894165,412.777496 222.959396,408.467438 
	C223.042450,402.981476 223.291656,397.471497 222.896957,392.013245 
	C222.576950,387.587952 220.913879,383.567108 215.943939,381.439972 
	C215.632812,381.351166 215.321701,381.262390 214.353333,381.039062 
	C213.908783,381.007050 213.464249,380.975037 212.648453,380.163727 
	C203.686768,379.151215 195.911575,381.250916 190.366287,388.300690 
	C190.654343,389.415039 190.604218,390.534180 191.089798,390.863617 
	C192.835281,392.047607 194.674210,393.370819 196.659424,393.798553 
	C197.549011,393.990234 199.821182,392.205078 199.839661,391.284393 
	C199.966232,384.978119 203.946640,383.800659 209.634277,384.018951 
	C210.415695,384.366760 211.197128,384.714539 212.088181,385.557983 
M322.014648,231.968735 
	C322.369507,249.292786 322.724365,266.616852 322.996155,284.367981 
	C322.996155,284.367981 322.950745,284.800659 322.496002,285.062927 
	C322.350159,285.366028 322.204315,285.669098 321.993500,286.907074 
	C322.249542,295.593140 322.062408,304.161316 317.522308,312.041718 
	C315.885590,314.882629 317.731354,316.716187 320.429413,316.871094 
	C329.693298,317.403015 338.977081,317.910583 348.249023,317.842987 
	C352.824097,317.809662 354.350494,314.744690 352.979706,310.356842 
	C352.289673,308.147949 351.194122,305.937317 351.098450,303.692657 
	C350.596741,291.920166 350.163910,280.137695 350.092255,268.356384 
	C350.043945,260.408844 350.593750,252.455688 350.945862,244.508148 
	C351.588715,229.996399 366.006989,218.584198 380.212708,229.019592 
	C383.092041,231.134689 386.203613,230.311249 388.007324,227.364594 
	C390.052155,224.024017 391.823181,220.427368 393.114319,216.732742 
	C395.620605,209.561020 393.372162,205.844193 385.957581,203.952820 
	C375.337616,201.243851 366.231750,204.884613 358.288116,211.399597 
	C354.210266,214.744064 351.209412,219.401627 347.622986,223.580994 
	C346.391541,219.425430 345.694275,215.087250 343.801544,211.355377 
	C342.450562,208.691650 339.688080,205.245468 337.215637,204.945007 
	C331.111938,204.203262 324.777344,204.746414 318.606018,205.419266 
	C315.188721,205.791840 314.234100,208.570023 315.392792,211.867294 
	C317.638489,218.257660 319.852570,224.659119 322.014648,231.968735 
M497.669800,265.946930 
	C502.946259,265.486359 504.404694,261.628693 504.940918,257.323578 
	C505.308899,254.369476 505.145386,251.330124 505.021912,248.337021 
	C504.398529,233.224365 498.481476,220.760086 485.930328,212.009735 
	C473.894745,203.618851 460.465088,201.820435 446.082581,203.834549 
	C427.679932,206.411591 414.337891,216.053162 406.036407,232.237503 
	C398.093353,247.723099 396.865814,264.372070 401.613831,281.037567 
	C406.765930,299.121307 417.931458,312.056732 436.693237,316.990509 
	C450.999176,320.752563 465.416901,320.495422 479.107727,314.676422 
	C486.251587,311.640076 492.562866,306.810242 495.949768,299.201263 
	C498.154938,294.247162 497.334381,289.141785 493.471527,286.061707 
	C490.531403,283.717407 488.262909,282.848969 485.667053,287.287048 
	C479.383942,298.029205 469.097656,302.749939 457.133820,301.745087 
	C438.234711,300.157837 430.465393,287.298706 428.011292,268.926697 
	C427.599762,265.845734 428.897064,264.573883 432.564880,265.631134 
	C454.013062,265.714478 475.461243,265.797821 497.669800,265.946930 
M157.332748,227.819550 
	C157.665482,229.638138 157.590561,231.679504 158.432312,233.219955 
	C159.528915,235.226791 161.006958,237.554977 162.929443,238.479797 
	C168.351379,241.088058 178.930634,236.795319 181.857071,231.460312 
	C187.032516,222.025284 182.696411,215.879059 176.284637,211.150177 
	C166.684875,204.070053 155.553940,202.722382 143.895920,202.906235 
	C130.803772,203.112717 119.798798,208.060974 110.790031,216.970947 
	C100.140793,227.503403 95.000015,240.972290 94.128311,255.742722 
	C93.236771,270.849274 94.618416,285.850220 104.107925,298.472839 
	C108.559822,304.394623 113.729721,310.294739 119.827225,314.294556 
	C124.557953,317.397827 131.171509,317.882385 137.055176,318.929718 
	C155.080673,322.138367 170.351135,317.299500 181.275848,302.094177 
	C186.384232,294.984192 185.165848,284.674896 174.594131,282.011322 
	C173.980057,283.219025 173.350327,284.489288 172.693100,285.745087 
	C167.102600,296.427307 158.440033,301.557220 146.245865,299.867157 
	C135.935638,298.438232 130.244415,291.325592 126.810577,281.668762 
	C123.047615,271.086365 123.856918,260.259003 124.151527,249.516129 
	C124.292694,244.368820 126.035561,239.016113 128.143936,234.237793 
	C130.554153,228.775436 134.074265,223.997742 140.399200,221.793060 
	C147.623566,219.274796 153.923599,220.960220 157.332748,227.819550 
M353.206848,368.002655 
	C343.383026,368.018951 333.559204,368.053741 323.735443,368.039001 
	C321.166443,368.035156 319.504425,368.567535 320.302612,371.757538 
	C321.309143,375.780243 322.781342,379.851288 322.829346,383.915955 
	C322.942078,393.461609 322.487610,403.025574 321.913025,412.561035 
	C321.731537,415.572998 320.441132,418.518188 319.522461,422.010071 
	C331.491547,422.010071 342.462921,422.017792 353.434265,422.005035 
	C356.449921,422.001526 358.325409,421.010193 358.049469,417.427124 
	C357.788025,414.031982 357.993286,410.600891 357.993286,406.246765 
	C353.787201,408.867371 350.663147,411.852875 347.007355,412.812256 
	C342.993591,413.865601 338.489960,413.052277 334.211304,413.052277 
	C334.211304,407.809113 334.211304,403.040588 334.211304,397.680389 
	C340.149689,398.144287 345.812531,398.586670 351.981750,399.068604 
	C351.981750,395.528748 351.981750,392.280060 351.981750,389.539917 
	C345.521484,389.539917 339.872864,389.539917 334.236938,389.539917 
	C334.236938,385.365631 334.236938,381.286133 334.236938,376.956665 
	C338.798492,376.956665 343.268768,376.231140 347.349823,377.179871 
	C350.785950,377.978699 353.769470,380.724213 357.995911,383.224792 
	C357.995911,379.158020 357.909729,375.929352 358.021912,372.707550 
	C358.119690,369.899841 357.840637,367.593018 353.206848,368.002655 
M379.544250,388.916046 
	C384.798981,386.993805 386.648926,388.442902 387.899048,395.590302 
	C380.478973,395.786926 373.236511,396.922913 367.473694,401.993927 
	C361.965912,406.840485 360.657410,411.515656 366.148163,417.508423 
	C370.901062,422.695862 379.044464,423.635773 385.302094,420.238922 
	C386.381165,419.653198 387.932983,419.398712 389.118073,419.661133 
	C391.519653,420.192902 393.838104,421.134552 396.152100,422.009613 
	C397.030884,422.341888 397.803070,422.956116 397.462067,422.754303 
	C398.859222,421.545319 400.111938,420.461273 401.549072,419.217651 
	C397.233826,412.867889 397.494659,404.971161 398.547760,397.038666 
	C399.303375,391.347290 395.857971,383.331268 391.412262,381.285400 
	C385.369507,378.504547 373.322418,380.527222 368.456116,385.139679 
	C364.937042,388.475189 365.250305,391.224854 369.454468,393.902435 
	C372.592010,395.900726 376.656769,393.752350 379.544250,388.916046 
M468.433899,413.100098 
	C466.927856,413.147430 465.404388,413.359558 463.919922,413.202728 
	C461.790497,412.977753 458.943115,413.194305 457.748932,411.940125 
	C455.894379,409.992279 455.173584,406.964905 453.772858,403.968872 
	C458.865631,403.968872 463.000397,403.968842 467.135162,403.968842 
	C471.388214,403.968842 475.641235,403.968872 479.986603,403.968872 
	C479.986603,400.724884 479.929596,398.072083 479.999023,395.422607 
	C480.125275,390.604675 477.470428,386.825409 474.233124,384.152039 
	C464.386627,376.020721 451.406311,380.719421 445.339539,390.280518 
	C441.679810,396.048187 442.166779,410.804352 448.537567,416.511444 
	C454.972382,422.275879 461.887939,422.608765 469.028381,421.631836 
	C472.406250,421.169678 475.544281,417.571960 478.294006,414.886108 
	C478.971283,414.224457 478.135925,411.271698 477.197113,409.931946 
	C476.439667,408.851013 473.873840,407.711273 473.173462,408.181458 
	C471.510315,409.297852 470.478058,411.354065 468.433899,413.100098 
M418.591644,389.013031 
	C424.586578,386.754150 427.294403,387.974548 431.492157,394.827148 
	C437.418884,391.399658 438.916321,386.308380 434.850922,383.407104 
	C427.433228,378.113556 416.104614,378.899872 410.060364,385.625702 
	C405.138367,391.102692 405.010925,398.275024 412.613373,402.067688 
	C416.882355,404.197357 421.364349,405.900848 425.626129,408.043549 
	C426.669312,408.567963 427.877777,410.096344 427.825256,411.101288 
	C427.770325,412.153625 426.480469,413.472900 425.396790,414.080627 
	C421.468048,416.283813 415.526733,413.571472 412.898529,408.826538 
	C412.410522,407.945496 410.915771,407.622070 409.885651,407.041290 
	C408.938446,409.159271 407.468536,411.215637 407.209259,413.414703 
	C407.001465,415.177063 407.701599,418.069702 408.966522,418.812164 
	C415.891052,422.876892 423.486389,423.342834 431.039673,420.898499 
	C436.045044,419.278687 440.058502,412.963989 439.300781,407.025726 
	C438.823639,403.286346 436.467377,399.758087 432.092957,398.577179 
	C429.340302,397.834076 426.444946,397.256378 423.974487,395.931549 
	C421.422455,394.562897 417.023163,394.481842 418.591644,389.013031 
M257.004913,414.146454 
	C254.879242,415.437317 252.856125,417.596588 250.609329,417.861969 
	C242.767838,418.788055 240.908020,411.453857 237.237640,406.712646 
	C232.218719,412.484222 233.211884,418.012543 239.555237,419.885742 
	C243.515945,421.055359 247.731583,421.651978 251.866684,421.873322 
	C258.204468,422.212524 264.945129,416.684753 265.981567,410.841064 
	C266.854431,405.919678 262.805176,400.595154 256.505768,398.152649 
	C253.099365,396.831909 249.551270,395.643280 246.515213,393.696259 
	C244.923569,392.675537 243.247162,389.951111 243.544373,388.356903 
	C243.820679,386.874817 246.524094,385.546539 248.408966,384.722076 
	C253.061966,382.686859 255.367813,385.228882 257.197418,389.299988 
	C257.878265,390.814880 260.043915,391.662476 261.532532,392.814362 
	C262.280060,391.091553 263.642578,389.356506 263.608704,387.649170 
	C263.572021,385.801636 262.630127,382.747559 261.395813,382.349213 
	C253.987808,379.958679 246.323029,377.258240 239.451233,383.897705 
	C236.258514,386.982513 234.099197,390.099518 235.917679,395.012421 
	C237.865906,400.275940 242.153748,401.986572 246.657104,404.099060 
	C250.887405,406.083496 256.912415,406.547791 257.004913,414.146454 
z"/>
<path fill="#293041" opacity="1.000000" stroke="none" 
	d="
M431.951935,265.058105 
	C428.897064,264.573883 427.599762,265.845734 428.011292,268.926697 
	C430.465393,287.298706 438.234711,300.157837 457.133820,301.745087 
	C469.097656,302.749939 479.383942,298.029205 485.667053,287.287048 
	C488.262909,282.848969 490.531403,283.717407 493.471527,286.061707 
	C497.334381,289.141785 498.154938,294.247162 495.949768,299.201263 
	C492.562866,306.810242 486.251587,311.640076 479.107727,314.676422 
	C465.416901,320.495422 450.999176,320.752563 436.693237,316.990509 
	C417.931458,312.056732 406.765930,299.121307 401.613831,281.037567 
	C396.865814,264.372070 398.093353,247.723099 406.036407,232.237503 
	C414.337891,216.053162 427.679932,206.411591 446.082581,203.834549 
	C460.465088,201.820435 473.894745,203.618851 485.930328,212.009735 
	C498.481476,220.760086 504.398529,233.224365 505.021912,248.337021 
	C505.145386,251.330124 505.308899,254.369476 504.940918,257.323578 
	C504.404694,261.628693 502.946259,265.486359 496.987610,265.647888 
	C488.214264,264.898834 480.127625,264.210510 472.030792,264.055573 
	C460.394440,263.832855 448.750336,263.955261 437.110413,264.045654 
	C435.388428,264.059021 433.671295,264.704865 431.951935,265.058105 
M475.512604,250.719162 
	C476.032959,249.493835 476.553345,248.268494 477.314514,246.274780 
	C479.445465,229.416580 468.303528,215.038544 447.966034,219.533112 
	C435.719360,222.239624 428.024109,236.855209 427.509674,251.061356 
	C427.391815,251.293701 427.273956,251.526047 427.156097,251.758377 
	C427.442566,251.838791 427.729004,251.989365 428.015533,251.989563 
	C442.793457,252.000015 457.571442,252.015930 472.349060,251.951157 
	C473.227417,251.947311 474.102905,251.285233 474.978943,250.998001 
	C474.978943,250.998001 474.922302,250.959351 475.512604,250.719162 
z"/>
<path fill="#ACD9D0" opacity="1.000000" stroke="none" 
	d="
M157.191986,227.484406 
	C153.923599,220.960220 147.623566,219.274796 140.399200,221.793060 
	C134.074265,223.997742 130.554153,228.775436 128.143936,234.237793 
	C126.035561,239.016113 124.292694,244.368820 124.151527,249.516129 
	C123.856918,260.259003 123.047615,271.086365 126.810577,281.668762 
	C130.244415,291.325592 135.935638,298.438232 146.245865,299.867157 
	C158.440033,301.557220 167.102600,296.427307 172.693100,285.745087 
	C173.350327,284.489288 173.980057,283.219025 174.594131,282.011322 
	C185.165848,284.674896 186.384232,294.984192 181.275848,302.094177 
	C170.351135,317.299500 155.080673,322.138367 137.055176,318.929718 
	C131.171509,317.882385 124.557953,317.397827 119.827225,314.294556 
	C113.729721,310.294739 108.559822,304.394623 104.107925,298.472839 
	C94.618416,285.850220 93.236771,270.849274 94.128311,255.742722 
	C95.000015,240.972290 100.140793,227.503403 110.790031,216.970947 
	C119.798798,208.060974 130.803772,203.112717 143.895920,202.906235 
	C155.553940,202.722382 166.684875,204.070053 176.284637,211.150177 
	C182.696411,215.879059 187.032516,222.025284 181.857071,231.460312 
	C178.930634,236.795319 168.351379,241.088058 162.929443,238.479797 
	C161.006958,237.554977 159.528915,235.226791 158.432312,233.219955 
	C157.590561,231.679504 157.665482,229.638138 157.191986,227.484406 
z"/>
<path fill="#293142" opacity="1.000000" stroke="none" 
	d="
M322.950745,284.800659 
	C322.950745,284.800659 322.996155,284.367981 323.315338,283.855316 
	C323.745972,268.597717 323.953766,253.852325 323.880981,239.108307 
	C323.867737,236.421310 322.709442,233.739944 322.079773,231.055969 
	C319.852570,224.659119 317.638489,218.257660 315.392792,211.867294 
	C314.234100,208.570023 315.188721,205.791840 318.606018,205.419266 
	C324.777344,204.746414 331.111938,204.203262 337.215637,204.945007 
	C339.688080,205.245468 342.450562,208.691650 343.801544,211.355377 
	C345.694275,215.087250 346.391541,219.425430 347.622986,223.580994 
	C351.209412,219.401627 354.210266,214.744064 358.288116,211.399597 
	C366.231750,204.884613 375.337616,201.243851 385.957581,203.952820 
	C393.372162,205.844193 395.620605,209.561020 393.114319,216.732742 
	C391.823181,220.427368 390.052155,224.024017 388.007324,227.364594 
	C386.203613,230.311249 383.092041,231.134689 380.212708,229.019592 
	C366.006989,218.584198 351.588715,229.996399 350.945862,244.508148 
	C350.593750,252.455688 350.043945,260.408844 350.092255,268.356384 
	C350.163910,280.137695 350.596741,291.920166 351.098450,303.692657 
	C351.194122,305.937317 352.289673,308.147949 352.979706,310.356842 
	C354.350494,314.744690 352.824097,317.809662 348.249023,317.842987 
	C338.977081,317.910583 329.693298,317.403015 320.429413,316.871094 
	C317.731354,316.716187 315.885590,314.882629 317.522308,312.041718 
	C322.062408,304.161316 322.249542,295.593140 322.249512,286.311523 
	C322.653961,285.410889 322.802338,285.105774 322.950745,284.800659 
z"/>
<path fill="#F6F8F9" opacity="1.000000" stroke="none" 
	d="
M353.673523,368.006775 
	C357.840637,367.593018 358.119690,369.899841 358.021912,372.707550 
	C357.909729,375.929352 357.995911,379.158020 357.995911,383.224792 
	C353.769470,380.724213 350.785950,377.978699 347.349823,377.179871 
	C343.268768,376.231140 338.798492,376.956665 334.236938,376.956665 
	C334.236938,381.286133 334.236938,385.365631 334.236938,389.539917 
	C339.872864,389.539917 345.521484,389.539917 351.981750,389.539917 
	C351.981750,392.280060 351.981750,395.528748 351.981750,399.068604 
	C345.812531,398.586670 340.149689,398.144287 334.211304,397.680389 
	C334.211304,403.040588 334.211304,407.809113 334.211304,413.052277 
	C338.489960,413.052277 342.993591,413.865601 347.007355,412.812256 
	C350.663147,411.852875 353.787201,408.867371 357.993286,406.246765 
	C357.993286,410.600891 357.788025,414.031982 358.049469,417.427124 
	C358.325409,421.010193 356.449921,422.001526 353.434265,422.005035 
	C342.462921,422.017792 331.491547,422.010071 319.522461,422.010071 
	C320.441132,418.518188 321.731537,415.572998 321.913025,412.561035 
	C322.487610,403.025574 322.942078,393.461609 322.829346,383.915955 
	C322.781342,379.851288 321.309143,375.780243 320.302612,371.757538 
	C319.504425,368.567535 321.166443,368.035156 323.735443,368.039001 
	C333.559204,368.053741 343.383026,368.018951 353.673523,368.006775 
z"/>
<path fill="#F5F7F8" opacity="1.000000" stroke="none" 
	d="
M379.150452,388.951019 
	C376.656769,393.752350 372.592010,395.900726 369.454468,393.902435 
	C365.250305,391.224854 364.937042,388.475189 368.456116,385.139679 
	C373.322418,380.527222 385.369507,378.504547 391.412262,381.285400 
	C395.857971,383.331268 399.303375,391.347290 398.547760,397.038666 
	C397.494659,404.971161 397.233826,412.867889 401.549072,419.217651 
	C400.111938,420.461273 398.859222,421.545319 397.462067,422.754303 
	C397.803070,422.956116 397.030884,422.341888 396.152100,422.009613 
	C393.838104,421.134552 391.519653,420.192902 389.118073,419.661133 
	C387.932983,419.398712 386.381165,419.653198 385.302094,420.238922 
	C379.044464,423.635773 370.901062,422.695862 366.148163,417.508423 
	C360.657410,411.515656 361.965912,406.840485 367.473694,401.993927 
	C373.236511,396.922913 380.478973,395.786926 387.899048,395.590302 
	C386.648926,388.442902 384.798981,386.993805 379.150452,388.951019 
M375.991119,406.677032 
	C376.246918,408.858032 375.750549,412.108551 376.947937,412.950653 
	C378.462128,414.015533 381.500183,413.606110 383.625397,412.973816 
	C388.973816,411.382477 386.410034,406.847046 387.227997,402.329681 
	C383.150452,403.722870 379.791534,404.870544 375.991119,406.677032 
z"/>
<path fill="#F5F7F8" opacity="1.000000" stroke="none" 
	d="
M468.812378,413.065308 
	C470.478058,411.354065 471.510315,409.297852 473.173462,408.181458 
	C473.873840,407.711273 476.439667,408.851013 477.197113,409.931946 
	C478.135925,411.271698 478.971283,414.224457 478.294006,414.886108 
	C475.544281,417.571960 472.406250,421.169678 469.028381,421.631836 
	C461.887939,422.608765 454.972382,422.275879 448.537567,416.511444 
	C442.166779,410.804352 441.679810,396.048187 445.339539,390.280518 
	C451.406311,380.719421 464.386627,376.020721 474.233124,384.152039 
	C477.470428,386.825409 480.125275,390.604675 479.999023,395.422607 
	C479.929596,398.072083 479.986603,400.724884 479.986603,403.968872 
	C475.641235,403.968872 471.388214,403.968842 467.135162,403.968842 
	C463.000397,403.968842 458.865631,403.968872 453.772858,403.968872 
	C455.173584,406.964905 455.894379,409.992279 457.748932,411.940125 
	C458.943115,413.194305 461.790497,412.977753 463.919922,413.202728 
	C465.404388,413.359558 466.927856,413.147430 468.812378,413.065308 
M467.708374,391.113190 
	C465.649780,388.878937 463.565369,386.867432 460.093750,388.332794 
	C456.312286,389.928925 455.233124,392.965363 455.096619,396.776398 
	C459.841736,396.776398 464.379211,396.776398 469.447357,396.776398 
	C468.895538,394.851501 468.468140,393.360657 467.708374,391.113190 
z"/>
<path fill="#F4F6F7" opacity="1.000000" stroke="none" 
	d="
M418.303894,389.315796 
	C417.023163,394.481842 421.422455,394.562897 423.974487,395.931549 
	C426.444946,397.256378 429.340302,397.834076 432.092957,398.577179 
	C436.467377,399.758087 438.823639,403.286346 439.300781,407.025726 
	C440.058502,412.963989 436.045044,419.278687 431.039673,420.898499 
	C423.486389,423.342834 415.891052,422.876892 408.966522,418.812164 
	C407.701599,418.069702 407.001465,415.177063 407.209259,413.414703 
	C407.468536,411.215637 408.938446,409.159271 409.885651,407.041260 
	C410.915771,407.622070 412.410522,407.945496 412.898529,408.826538 
	C415.526733,413.571472 421.468048,416.283813 425.396790,414.080627 
	C426.480469,413.472900 427.770325,412.153625 427.825256,411.101288 
	C427.877777,410.096344 426.669312,408.567963 425.626129,408.043549 
	C421.364349,405.900848 416.882355,404.197357 412.613373,402.067688 
	C405.010925,398.275024 405.138367,391.102692 410.060364,385.625702 
	C416.104614,378.899872 427.433228,378.113556 434.850922,383.407104 
	C438.916321,386.308380 437.418884,391.399658 431.492157,394.827148 
	C427.294403,387.974548 424.586578,386.754150 418.303894,389.315796 
z"/>
<path fill="#EEF3F4" opacity="1.000000" stroke="none" 
	d="
M284.040283,401.882996 
	C282.019806,406.784241 284.844940,414.654877 289.408386,416.838287 
	C294.129761,419.097260 301.143494,416.845215 304.018219,412.103882 
	C304.843811,410.742279 305.539124,409.301666 306.305481,407.876221 
	C311.130127,410.949585 310.869232,411.755493 307.781158,415.830505 
	C299.680725,426.519806 280.447510,422.456818 275.132568,411.705353 
	C271.401154,404.157135 272.519012,392.435699 278.301697,386.145447 
	C283.479950,380.512756 290.044983,378.637817 296.960754,380.221680 
	C304.792694,382.015381 309.465729,387.843811 310.890717,395.817871 
	C311.165985,397.358337 310.137970,399.131683 309.086670,400.660889 
	C301.006348,400.394135 293.550568,400.217682 286.094635,400.211731 
	C285.410278,400.211182 284.725067,401.299988 284.040283,401.882996 
M297.228027,397.012756 
	C298.711884,397.012756 300.195740,397.012756 301.740631,397.012756 
	C299.367676,387.183472 296.604553,383.384979 292.354095,383.937836 
	C287.485962,384.571014 283.648987,390.022980 283.335205,397.011780 
	C287.657471,397.011780 291.972565,397.011780 297.228027,397.012756 
z"/>
<path fill="#F1F4F5" opacity="1.000000" stroke="none" 
	d="
M216.071228,381.970490 
	C220.913879,383.567108 222.576950,387.587952 222.896957,392.013245 
	C223.291656,397.471497 223.042450,402.981476 222.959396,408.467438 
	C222.894165,412.777496 222.086136,417.283447 227.489822,419.428894 
	C222.072525,423.567200 216.342102,422.404877 215.058167,418.250275 
	C210.180267,419.498718 205.418747,421.164429 200.520676,421.839691 
	C196.022354,422.459808 189.339783,417.621277 188.454025,414.038025 
	C187.166367,408.829010 190.341507,402.039581 195.402023,400.319000 
	C200.175934,398.695862 205.022675,397.180878 209.948517,396.148712 
	C213.109528,395.486328 214.626648,394.256256 214.023087,391.006531 
	C213.763931,389.611298 213.371719,388.240753 213.217468,386.289520 
	C213.403305,385.319672 213.411652,384.919342 213.419983,384.518982 
	C212.939514,384.700104 212.459030,384.881195 211.978561,385.062317 
	C211.197128,384.714539 210.415695,384.366760 209.406494,383.568726 
	C210.459045,382.393341 211.739380,381.668182 213.019699,380.943024 
	C213.464249,380.975037 213.908783,381.007050 214.810852,381.297272 
	C215.481766,381.798645 215.749390,381.936981 216.071228,381.970490 
M214.020416,405.127991 
	C214.020416,403.231903 214.020416,401.335815 214.020416,399.597534 
	C213.054062,399.904388 212.409180,400.074615 211.789764,400.311432 
	C208.201996,401.683350 204.234589,402.522064 201.184769,404.664459 
	C199.427643,405.898834 198.202209,409.365082 198.473541,411.617615 
	C198.774796,414.118286 200.437943,417.577271 204.020309,416.900665 
	C206.811417,416.373474 209.938217,415.126617 211.838303,413.159027 
	C213.392944,411.549103 213.357376,408.403595 214.020416,405.127991 
z"/>
<path fill="#EEF3F4" opacity="1.000000" stroke="none" 
	d="
M257.006714,413.742920 
	C256.912415,406.547791 250.887405,406.083496 246.657104,404.099060 
	C242.153748,401.986572 237.865906,400.275940 235.917679,395.012421 
	C234.099197,390.099518 236.258514,386.982513 239.451233,383.897705 
	C246.323029,377.258240 253.987808,379.958679 261.395813,382.349213 
	C262.630127,382.747559 263.572021,385.801636 263.608704,387.649170 
	C263.642578,389.356506 262.280060,391.091553 261.532532,392.814362 
	C260.043915,391.662476 257.878265,390.814880 257.197418,389.299988 
	C255.367813,385.228882 253.061966,382.686859 248.408966,384.722076 
	C246.524094,385.546539 243.820679,386.874817 243.544373,388.356903 
	C243.247162,389.951111 244.923569,392.675537 246.515213,393.696259 
	C249.551270,395.643280 253.099365,396.831909 256.505768,398.152649 
	C262.805176,400.595154 266.854431,405.919678 265.981567,410.841064 
	C264.945129,416.684753 258.204468,422.212524 251.866684,421.873322 
	C247.731583,421.651978 243.515945,421.055359 239.555237,419.885742 
	C233.211884,418.012543 232.218719,412.484222 237.237640,406.712646 
	C240.908020,411.453857 242.767838,418.788055 250.609329,417.861969 
	C252.856125,417.596588 254.879242,415.437317 257.006714,413.742920 
z"/>
<path fill="#EEF3F4" opacity="1.000000" stroke="none" 
	d="
M159.909210,421.035431 
	C149.263367,419.531097 140.196259,405.760620 145.525177,392.723511 
	C150.516006,380.513489 166.066345,376.616974 176.017181,382.958282 
	C181.444641,386.417023 182.691238,392.081726 178.270050,395.203552 
	C175.641663,397.059448 172.534897,395.678986 172.087921,392.458801 
	C171.503876,388.251038 170.765579,383.946228 165.236954,384.007538 
	C161.705185,384.046692 157.296494,386.483429 155.807022,391.506561 
	C154.161972,397.054413 153.077896,402.369476 154.960388,408.004883 
	C158.005814,417.121704 163.028687,419.495300 172.795135,416.208435 
	C172.309174,417.930298 171.174026,419.492004 170.038879,421.053711 
	C170.038895,421.053711 169.997620,421.005219 169.809845,421.087677 
	C169.350220,421.323242 169.144684,421.539398 169.005432,421.818604 
	C166.628098,421.866974 164.250778,421.915344 161.297577,421.711212 
	C160.501968,421.219604 160.231125,421.078491 159.909210,421.035431 
z"/>
<path fill="#CAA373" opacity="1.000000" stroke="none" 
	d="
M278.586823,213.209854 
	C286.016968,220.073639 288.685333,229.049316 288.912903,238.663452 
	C289.274933,253.955414 288.904205,269.263184 289.056549,284.562164 
	C289.145050,293.453522 290.084595,302.149780 297.168030,308.831207 
	C298.217621,309.821198 298.393036,311.737885 298.692322,313.418945 
	C297.923340,313.070862 297.434845,312.529694 296.659943,311.823120 
	C295.187683,310.292450 293.984497,308.941772 292.818878,307.559479 
	C286.057098,299.540833 286.751343,289.562653 286.202637,280.148163 
	C285.547150,268.901367 285.752014,257.577026 286.140991,246.305496 
	C286.455231,237.200119 284.963440,228.534424 281.850891,219.811508 
	C281.567566,219.303604 281.310425,219.111450 280.993103,219.004501 
	C281.000000,219.000000 280.990753,219.013824 280.886475,218.790787 
	C280.594604,218.279678 280.335968,218.086792 280.003174,217.994553 
	C280.000000,218.000000 280.010925,217.993637 279.904114,217.763123 
	C279.537231,217.319733 279.277191,217.106857 278.910309,216.700317 
	C278.619720,216.265259 278.386383,216.089783 278.069397,215.665680 
	C277.991821,214.932571 277.948334,214.514038 278.087036,213.883087 
	C278.375122,213.517090 278.480957,213.363464 278.586823,213.209854 
z"/>
<path fill="#DAB482" opacity="1.000000" stroke="none" 
	d="
M241.998032,318.799957 
	C232.725250,320.920776 223.656830,320.503235 214.643890,317.203491 
	C194.900085,309.975128 191.365295,284.436676 201.831177,269.955566 
	C202.590759,269.069702 202.761169,268.491058 202.931580,267.912384 
	C202.931564,267.912384 202.993011,267.996552 203.298828,267.986816 
	C204.067032,267.992004 204.529449,268.006897 204.996613,268.392456 
	C204.383118,270.080475 203.834137,271.435852 203.135559,272.709137 
	C197.766312,282.495850 196.999756,292.817657 202.039001,302.588989 
	C207.023422,312.254089 216.254684,316.375977 226.927444,316.951935 
	C231.938217,317.222351 236.975998,316.992432 242.000427,317.291046 
	C241.998886,317.995209 241.998459,318.397583 241.998032,318.799957 
z"/>
<path fill="#E0BA8B" opacity="1.000000" stroke="none" 
	d="
M239.965912,220.839600 
	C234.260086,221.970657 231.303726,226.372147 229.078369,230.964798 
	C225.070404,239.236374 220.974274,240.993958 212.495529,237.122742 
	C203.933182,233.213333 202.694244,231.378586 203.841797,223.078827 
	C204.976364,222.478592 205.480118,222.172516 205.997223,222.316254 
	C204.835144,231.139343 208.392212,233.020676 216.954941,235.725647 
	C222.301239,237.414566 224.264618,235.544815 228.078247,227.981827 
	C230.514038,223.151260 233.655273,218.894897 239.946167,219.289337 
	C239.952805,220.012833 239.959366,220.426224 239.965912,220.839600 
z"/>
<path fill="#E4EAEB" opacity="1.000000" stroke="none" 
	d="
M212.834076,380.553375 
	C211.739380,381.668182 210.459045,382.393341 209.096420,383.440491 
	C203.946640,383.800659 199.966232,384.978119 199.839661,391.284393 
	C199.821182,392.205078 197.549011,393.990234 196.659424,393.798553 
	C194.674210,393.370819 192.835281,392.047607 191.089798,390.863617 
	C190.604218,390.534180 190.654343,389.415039 190.366287,388.300690 
	C195.911575,381.250916 203.686768,379.151215 212.834076,380.553375 
z"/>
<path fill="#303A4E" opacity="1.000000" stroke="none" 
	d="
M432.258423,265.344604 
	C433.671295,264.704865 435.388428,264.059021 437.110413,264.045654 
	C448.750336,263.955261 460.394440,263.832855 472.030792,264.055573 
	C480.127625,264.210510 488.214264,264.898834 496.607422,265.614990 
	C475.461243,265.797821 454.013062,265.714478 432.258423,265.344604 
z"/>
<path fill="#CAA373" opacity="1.000000" stroke="none" 
	d="
M240.376099,220.910858 
	C239.959366,220.426224 239.952805,220.012833 239.963989,219.289124 
	C239.981720,218.978775 240.003464,218.955231 240.456696,218.969910 
	C243.933502,218.967514 246.957092,218.950455 250.232361,218.942932 
	C250.651718,218.962234 250.819351,218.971985 251.159836,219.228394 
	C251.896713,219.641327 252.460739,219.807587 253.388855,219.994049 
	C260.677734,222.454285 261.819733,228.225769 262.319916,234.526917 
	C262.831573,240.973083 259.189819,244.463776 253.720612,247.053009 
	C252.910446,247.371460 252.409607,247.685623 251.704285,248.010132 
	C251.499802,248.020462 251.090836,248.041199 250.697418,248.065140 
	C248.494843,248.372711 246.685654,248.656326 244.876480,248.939941 
	C247.618942,247.739868 250.459549,246.721512 253.084442,245.303787 
	C259.539307,241.817444 262.580627,235.081116 259.688995,229.494583 
	C255.882599,222.140762 248.768341,217.956284 240.376099,220.910858 
z"/>
<path fill="#CAA373" opacity="1.000000" stroke="none" 
	d="
M221.949677,206.853226 
	C239.536774,200.898224 256.863922,200.512405 273.828278,209.693665 
	C273.892395,210.115448 273.705078,210.309448 273.379089,210.210724 
	C272.366180,210.075195 271.679230,210.038361 270.996155,210.000763 
	C271.000000,210.000000 271.000854,210.007050 270.891907,209.785828 
	C270.579742,209.279633 270.304657,209.113937 269.732849,209.062805 
	C269.507965,209.058060 269.060303,209.013885 268.934784,208.789856 
	C268.520325,208.398926 268.231384,208.232010 267.634766,208.061523 
	C266.917480,208.035782 266.507874,208.013641 265.966339,207.771912 
	C265.542542,207.388046 265.250641,207.223785 264.645264,207.053650 
	C263.914093,207.032700 263.496338,207.017624 262.818909,206.725815 
	C259.695160,205.982254 256.831116,205.515427 253.648773,205.041107 
	C252.906052,205.026993 252.481613,205.020370 251.754517,204.721115 
	C241.973770,203.330124 232.753204,204.219528 223.693451,208.008530 
	C223.480057,208.019913 223.054077,208.054306 222.802368,207.923370 
	C222.350342,207.479370 222.150009,207.166290 221.949677,206.853226 
z"/>
<path fill="#E4EAEB" opacity="1.000000" stroke="none" 
	d="
M170.419922,421.002258 
	C171.174026,419.492004 172.309174,417.930298 173.193069,416.170227 
	C173.692551,414.407715 174.217606,412.664673 175.268692,411.338593 
	C176.045334,410.358704 177.507462,409.922119 178.664169,409.243469 
	C179.266052,410.843994 180.746475,412.754852 180.310593,413.988770 
	C178.802139,418.258728 175.046722,420.080902 170.419922,421.002258 
z"/>
<path fill="#303A4E" opacity="1.000000" stroke="none" 
	d="
M322.047180,231.512360 
	C322.709442,233.739944 323.867737,236.421310 323.880981,239.108307 
	C323.953766,253.852325 323.745972,268.597717 323.356873,283.641785 
	C322.724365,266.616852 322.369507,249.292786 322.047180,231.512360 
z"/>
<path fill="#CAA373" opacity="1.000000" stroke="none" 
	d="
M208.887115,261.951996 
	C216.674911,258.304901 224.462708,254.657822 232.627991,251.394196 
	C233.017319,252.203308 233.029160,252.628967 232.793213,253.317566 
	C225.717422,256.388824 218.889435,259.197113 211.665817,261.999573 
	C210.475830,261.979828 209.681473,261.965912 208.887115,261.951996 
z"/>
<path fill="#DDB07C" opacity="1.000000" stroke="none" 
	d="
M242.347534,318.843079 
	C241.998459,318.397583 241.998886,317.995209 242.369492,317.285645 
	C248.438690,313.597961 254.137711,310.217499 259.903137,306.903442 
	C259.969543,306.969849 260.101837,307.103180 260.101837,307.103180 
	C259.173859,312.681458 253.547256,313.478760 250.176361,316.516022 
	C248.407471,318.109833 245.235428,318.146393 242.347534,318.843079 
z"/>
<path fill="#CAA373" opacity="1.000000" stroke="none" 
	d="
M298.810791,315.979126 
	C293.067200,320.926544 286.195435,319.056305 279.795502,318.630524 
	C276.518036,318.412415 273.380829,316.086029 270.407532,314.350342 
	C271.096039,313.980377 271.557220,313.972534 272.013672,313.977112 
	C272.008911,313.989532 272.023468,313.977722 272.183289,314.228455 
	C272.899933,314.643311 273.456757,314.807373 274.006775,314.985107 
	C274.000000,314.998779 274.019989,314.976746 274.268127,315.267822 
	C281.673492,315.698639 288.830719,315.838409 295.992432,315.986023 
	C295.996857,315.993896 295.975922,315.974548 296.330261,315.973969 
	C297.393341,315.975311 298.102081,315.977234 298.810791,315.979126 
z"/>
<path fill="#ACD9D0" opacity="1.000000" stroke="none" 
	d="
M284.426819,401.970703 
	C284.725067,401.299988 285.410278,400.211182 286.094635,400.211731 
	C293.550568,400.217682 301.006348,400.394135 308.735870,400.844238 
	C308.837616,401.440735 308.665619,401.717194 308.057861,401.685913 
	C306.745331,401.542328 305.868561,401.706451 304.991791,401.870605 
	C303.599762,401.928223 302.207733,401.985870 300.316650,401.795776 
	C299.544495,401.651398 299.271362,401.754761 298.998230,401.858093 
	C297.927155,401.919708 296.856049,401.981323 295.303650,401.791382 
	C294.548035,401.648834 294.273712,401.757874 293.999390,401.866913 
	C293.241577,401.930176 292.483765,401.993469 291.173157,401.720917 
	C289.739471,401.548279 288.858582,401.711487 287.977661,401.874664 
	C286.922913,401.935913 285.868134,401.997192 284.426819,401.970703 
z"/>
<path fill="#E0BA8B" opacity="1.000000" stroke="none" 
	d="
M233.041016,253.054626 
	C233.029160,252.628967 233.017319,252.203308 233.013153,251.458374 
	C236.700058,250.419937 240.379303,249.700775 244.467514,248.960785 
	C246.685654,248.656326 248.494843,248.372711 250.597076,248.423279 
	C244.940430,250.189865 238.990723,251.622238 233.041016,253.054626 
z"/>
<path fill="#DDB07C" opacity="1.000000" stroke="none" 
	d="
M265.966034,308.107178 
	C265.492432,306.866058 265.018829,305.624969 264.537323,304.363190 
	C263.358307,305.192657 262.076050,306.094727 260.447815,307.049988 
	C260.101837,307.103180 259.969543,306.969849 259.999146,306.570160 
	C261.564301,304.580231 263.099854,302.989990 264.635437,301.399780 
	C265.423523,302.940033 266.211578,304.480286 266.746277,306.195984 
	C266.317261,306.949982 266.141632,307.528595 265.966034,308.107178 
z"/>
<path fill="#E0BA8B" opacity="1.000000" stroke="none" 
	d="
M207.954865,215.905533 
	C208.427963,215.319031 208.901031,214.732529 210.000000,214.042480 
	C211.753159,213.630768 212.880417,213.322586 213.974854,213.359344 
	C211.636154,215.806381 209.330307,217.908447 207.044861,219.655975 
	C207.361801,218.169464 207.658340,217.037491 207.954865,215.905533 
z"/>
<path fill="#DAB482" opacity="1.000000" stroke="none" 
	d="
M208.654510,262.019165 
	C209.681473,261.965912 210.475830,261.979828 211.605240,262.346191 
	C209.969406,264.133087 207.998520,265.567505 206.146118,266.698242 
	C206.491943,265.572693 206.719299,264.750854 206.946655,263.929016 
	C206.946671,263.929016 206.996384,263.999512 207.199570,263.878174 
	C207.588181,263.471710 207.773605,263.186584 207.959015,262.901459 
	C207.968262,262.547363 208.122543,262.275635 208.654510,262.019165 
z"/>
<path fill="#CAA373" opacity="1.000000" stroke="none" 
	d="
M207.610291,216.034576 
	C207.658340,217.037491 207.361801,218.169464 207.034698,219.653107 
	C207.004120,220.004791 207.002548,220.019669 206.772873,220.128555 
	C206.374557,220.524963 206.205933,220.812469 206.027786,221.291870 
	C206.018280,221.483749 205.983871,221.866440 205.983871,221.866455 
	C205.480118,222.172516 204.976364,222.478592 204.191406,222.872803 
	C205.028702,220.695160 206.147202,218.429382 207.610291,216.034576 
z"/>
<path fill="#CAA373" opacity="1.000000" stroke="none" 
	d="
M265.976868,308.455383 
	C266.141632,307.528595 266.317261,306.949982 266.760620,306.431824 
	C267.028381,306.492249 267.040344,306.965149 267.047150,307.265259 
	C267.372894,308.036987 267.691833,308.508545 268.006531,308.988220 
	C268.002319,308.996277 268.019775,308.996155 268.111206,309.222473 
	C268.387085,309.732788 268.638733,309.931732 268.984009,310.270935 
	C269.010345,310.496185 269.053070,310.947784 269.033691,311.298279 
	C269.002533,312.117249 268.990753,312.585693 268.979004,313.054138 
	C267.981903,311.637299 266.984802,310.220428 265.976868,308.455383 
z"/>
<path fill="#CAA373" opacity="1.000000" stroke="none" 
	d="
M214.007690,213.014404 
	C212.880417,213.322586 211.753159,213.630768 210.272308,213.950195 
	C211.683517,212.636414 213.448303,211.311386 215.648544,210.034958 
	C216.084000,210.083542 216.257294,210.259888 216.167725,210.541748 
	C216.023285,211.217056 215.968430,211.610504 215.709244,212.017395 
	C215.504913,212.030823 215.095764,212.048492 214.854980,212.130035 
	C214.413254,212.475571 214.212326,212.739563 214.006287,213.002289 
	C214.001160,213.001022 214.007690,213.014404 214.007690,213.014404 
z"/>
<path fill="#CAA373" opacity="1.000000" stroke="none" 
	d="
M273.986328,210.018738 
	C275.446106,210.861115 276.811951,211.800217 278.382324,212.974579 
	C278.480957,213.363464 278.375122,213.517090 277.774872,213.851074 
	C276.860382,214.014847 276.440247,213.998230 276.012451,213.989517 
	C276.004761,213.997437 276.012024,213.984528 275.915344,213.759323 
	C275.623199,213.251175 275.357880,213.071182 275.013641,212.993134 
	C275.004578,212.992096 275.005798,212.973526 274.888916,212.698441 
	C274.416382,211.718719 274.060730,211.014084 273.705078,210.309448 
	C273.705078,210.309448 273.892395,210.115448 273.986328,210.018738 
z"/>
<path fill="#E0BA8B" opacity="1.000000" stroke="none" 
	d="
M298.881409,315.647003 
	C298.102081,315.977234 297.393341,315.975311 296.371948,315.632446 
	C296.354950,314.190491 296.650665,313.089539 296.946381,311.988556 
	C297.434845,312.529694 297.923340,313.070862 298.627045,313.789062 
	C298.878845,314.415680 298.915436,314.865295 298.881409,315.647003 
z"/>
<path fill="#CAA373" opacity="1.000000" stroke="none" 
	d="
M206.642517,264.036743 
	C206.719299,264.750854 206.491943,265.572693 206.134094,266.703094 
	C206.003601,267.011627 205.986832,267.028595 205.769974,267.121765 
	C205.283783,267.405151 205.108704,267.660095 205.018524,267.989685 
	C205.009171,267.999634 204.991852,268.021790 204.991852,268.021790 
	C204.529449,268.006897 204.067032,267.992004 203.258377,267.953918 
	C204.054214,266.668671 205.196304,265.406586 206.642517,264.036743 
z"/>
<path fill="#E0BA8B" opacity="1.000000" stroke="none" 
	d="
M221.652985,206.930481 
	C222.150009,207.166290 222.350342,207.479370 222.597885,208.181000 
	C221.431702,209.048782 220.218292,209.528000 219.102966,209.733047 
	C219.454086,208.940414 219.707123,208.421951 219.960159,207.903488 
	C220.425537,207.604904 220.890900,207.306320 221.652985,206.930481 
z"/>
<path fill="#E0BA8B" opacity="1.000000" stroke="none" 
	d="
M269.038635,313.298828 
	C268.990753,312.585693 269.002533,312.117249 269.306702,311.440186 
	C270.405548,312.142609 271.211975,313.053650 272.018402,313.964691 
	C271.557220,313.972534 271.096039,313.980377 270.288391,314.005554 
	C269.660675,313.863129 269.379486,313.703308 269.038635,313.298828 
z"/>
<path fill="#CAA373" opacity="1.000000" stroke="none" 
	d="
M219.614288,207.934769 
	C219.707123,208.421951 219.454086,208.940414 219.100708,209.729492 
	C219.000381,210.000092 219.006958,210.004761 218.658081,209.997925 
	C217.625229,210.080704 216.941254,210.170288 216.257294,210.259888 
	C216.257294,210.259888 216.084000,210.083542 215.997589,209.995117 
	C217.030258,209.259811 218.149338,208.612930 219.614288,207.934769 
z"/>
<path fill="#E4EAEB" opacity="1.000000" stroke="none" 
	d="
M212.033371,385.310150 
	C212.459030,384.881195 212.939514,384.700104 213.419983,384.518982 
	C213.411652,384.919342 213.403305,385.319672 213.169922,385.870667 
	C212.659302,385.866882 212.373749,385.712433 212.033371,385.310150 
z"/>
<path fill="#EEF3F4" opacity="1.000000" stroke="none" 
	d="
M288.351746,401.926819 
	C288.858582,401.711487 289.739471,401.548279 290.801147,401.631104 
	C290.229889,401.911072 289.477875,401.945007 288.351746,401.926819 
z"/>
<path fill="#EEF3F4" opacity="1.000000" stroke="none" 
	d="
M305.364990,401.923767 
	C305.868561,401.706451 306.745331,401.542328 307.805939,401.619568 
	C307.239258,401.899597 306.488708,401.938232 305.364990,401.923767 
z"/>
<path fill="#CAA373" opacity="1.000000" stroke="none" 
	d="
M202.633194,268.024475 
	C202.761169,268.491058 202.590759,269.069702 202.150635,269.801331 
	C202.032227,269.348389 202.183517,268.742462 202.633194,268.024475 
z"/>
<path fill="#EEF3F4" opacity="1.000000" stroke="none" 
	d="
M294.248840,401.914917 
	C294.273712,401.757874 294.548035,401.648834 294.909393,401.701660 
	C294.830383,401.896637 294.664307,401.929779 294.248840,401.914917 
z"/>
<path fill="#E4EAEB" opacity="1.000000" stroke="none" 
	d="
M169.271515,421.877869 
	C169.144684,421.539398 169.350220,421.323242 169.837982,421.102356 
	C169.881821,421.335419 169.709717,421.636261 169.271515,421.877869 
z"/>
<path fill="#E4EAEB" opacity="1.000000" stroke="none" 
	d="
M159.975769,421.304077 
	C160.231125,421.078491 160.501968,421.219604 160.855774,421.649170 
	C160.674011,421.750610 160.358170,421.661682 159.975769,421.304077 
z"/>
<path fill="#EEF3F4" opacity="1.000000" stroke="none" 
	d="
M299.247925,401.906250 
	C299.271362,401.754761 299.544495,401.651398 299.907349,401.703400 
	C299.830627,401.890625 299.664124,401.922546 299.247925,401.906250 
z"/>
<path fill="#CAA373" opacity="1.000000" stroke="none" 
	d="
M207.699707,262.976929 
	C207.773605,263.186584 207.588181,263.471710 207.161942,263.856934 
	C207.094208,263.655518 207.267303,263.353943 207.699707,262.976929 
z"/>
<path fill="#303A4E" opacity="1.000000" stroke="none" 
	d="
M322.723389,284.931793 
	C322.802338,285.105774 322.653961,285.410889 322.282013,285.844116 
	C322.204315,285.669098 322.350159,285.366028 322.723389,284.931793 
z"/>
<path fill="#E4EAEB" opacity="1.000000" stroke="none" 
	d="
M216.007584,381.705231 
	C215.749390,381.936981 215.481766,381.798645 215.139465,381.364563 
	C215.321701,381.262390 215.632812,381.351166 216.007584,381.705231 
z"/>
<path fill="#000000" opacity="1.000000" stroke="none" 
	d="
M428.104797,250.934326 
	C428.024109,236.855209 435.719360,222.239624 447.966034,219.533112 
	C468.303528,215.038544 479.445465,229.416580 477.041565,246.948608 
	C476.153168,248.734756 475.537720,249.847046 474.922302,250.959351 
	C474.922302,250.959351 474.978943,250.998001 474.511261,250.935425 
	C458.730652,250.893341 443.417725,250.913834 428.104797,250.934326 
z"/>
<path fill="#303A4E" opacity="1.000000" stroke="none" 
	d="
M427.807251,250.997833 
	C443.417725,250.913834 458.730652,250.893341 474.511658,250.901154 
	C474.102905,251.285233 473.227417,251.947311 472.349060,251.951157 
	C457.571442,252.015930 442.793457,252.000015 428.015533,251.989563 
	C427.729004,251.989365 427.442566,251.838791 427.156097,251.758377 
	C427.273956,251.526047 427.391815,251.293701 427.807251,250.997833 
z"/>
<path fill="#303A4E" opacity="1.000000" stroke="none" 
	d="
M475.217438,250.839249 
	C475.537720,249.847046 476.153168,248.734756 476.921143,247.332809 
	C476.553345,248.268494 476.032959,249.493835 475.217438,250.839249 
z"/>
<path fill="#000000" opacity="1.000000" stroke="none" 
	d="
M376.211853,406.347626 
	C379.791534,404.870544 383.150452,403.722870 387.227997,402.329681 
	C386.410034,406.847046 388.973816,411.382477 383.625397,412.973816 
	C381.500183,413.606110 378.462128,414.015533 376.947937,412.950653 
	C375.750549,412.108551 376.246918,408.858032 376.211853,406.347626 
z"/>
<path fill="#000000" opacity="1.000000" stroke="none" 
	d="
M467.874573,391.491516 
	C468.468140,393.360657 468.895538,394.851501 469.447357,396.776398 
	C464.379211,396.776398 459.841736,396.776398 455.096619,396.776398 
	C455.233124,392.965363 456.312286,389.928925 460.093750,388.332794 
	C463.565369,386.867432 465.649780,388.878937 467.874573,391.491516 
z"/>
<path fill="#000000" opacity="1.000000" stroke="none" 
	d="
M296.757843,397.012268 
	C291.972565,397.011780 287.657471,397.011780 283.335205,397.011780 
	C283.648987,390.022980 287.485962,384.571014 292.354095,383.937836 
	C296.604553,383.384979 299.367676,387.183472 301.740631,397.012756 
	C300.195740,397.012756 298.711884,397.012756 296.757843,397.012268 
z"/>
<path fill="#000000" opacity="1.000000" stroke="none" 
	d="
M214.023621,405.533417 
	C213.357376,408.403595 213.392944,411.549103 211.838303,413.159027 
	C209.938217,415.126617 206.811417,416.373474 204.020309,416.900665 
	C200.437943,417.577271 198.774796,414.118286 198.473541,411.617615 
	C198.202209,409.365082 199.427643,405.898834 201.184769,404.664459 
	C204.234589,402.522064 208.201996,401.683350 211.789764,400.311432 
	C212.409180,400.074615 213.054062,399.904388 214.020416,399.597534 
	C214.020416,401.335815 214.020416,403.231903 214.023621,405.533417 
z"/>
<path fill="#F4B56F" opacity="1.000000" stroke="none" 
	d="
M272.013672,313.977112 
	C271.211975,313.053650 270.405548,312.142609 269.326111,311.089661 
	C269.053070,310.947784 269.010345,310.496185 268.895325,310.042358 
	C268.594940,309.303558 268.341431,309.106110 268.019775,308.996155 
	C268.019775,308.996155 268.002319,308.996277 267.988495,308.692749 
	C267.663239,307.914551 267.351776,307.439850 267.040344,306.965149 
	C267.040344,306.965149 267.028381,306.492249 267.014038,306.256409 
	C266.211578,304.480286 265.423523,302.940033 264.635437,301.399780 
	C263.099854,302.989990 261.564301,304.580231 259.932739,306.503754 
	C254.137711,310.217499 248.438690,313.597961 242.370605,316.983826 
	C236.975998,316.992432 231.938217,317.222351 226.927444,316.951935 
	C216.254684,316.375977 207.023422,312.254089 202.039001,302.588989 
	C196.999756,292.817657 197.766312,282.495850 203.135559,272.709137 
	C203.834137,271.435852 204.383118,270.080475 204.996613,268.392456 
	C204.991852,268.021790 205.009171,267.999634 205.234802,267.895905 
	C205.730957,267.603180 205.906418,267.348663 205.986832,267.028595 
	C205.986832,267.028595 206.003601,267.011627 206.015625,267.006775 
	C207.998520,265.567505 209.969406,264.133087 212.000870,262.352051 
	C218.889435,259.197113 225.717422,256.388824 232.793213,253.317566 
	C238.990723,251.622238 244.940430,250.189865 250.990479,248.399353 
	C251.090836,248.041199 251.499802,248.020462 252.014633,248.000519 
	C253.029617,247.669937 253.529770,247.359314 254.029907,247.048706 
	C259.189819,244.463776 262.831573,240.973083 262.319916,234.526917 
	C261.819733,228.225769 260.677734,222.454285 253.213501,219.751175 
	C252.111710,219.319305 251.549362,219.150513 250.987000,218.981720 
	C250.819351,218.971985 250.651718,218.962234 249.944580,218.669785 
	C246.271225,218.576477 243.137344,218.765854 240.003464,218.955231 
	C240.003464,218.955231 239.981720,218.978775 239.963898,218.979004 
	C233.655273,218.894897 230.514038,223.151260 228.078247,227.981827 
	C224.264618,235.544815 222.301239,237.414566 216.954941,235.725647 
	C208.392212,233.020676 204.835144,231.139343 205.997223,222.316254 
	C205.983871,221.866440 206.018280,221.483749 206.241364,221.162262 
	C206.737183,220.628265 206.916565,220.354568 207.002548,220.019669 
	C207.002548,220.019669 207.004120,220.004791 207.014282,220.007660 
	C209.330307,217.908447 211.636154,215.806381 213.974854,213.359344 
	C214.007690,213.014404 214.001160,213.001022 214.234314,212.904114 
	C214.746780,212.612213 214.956223,212.359299 215.095764,212.048492 
	C215.095764,212.048492 215.504913,212.030823 216.072144,212.016190 
	C217.428558,211.335953 218.217758,210.670349 219.006958,210.004761 
	C219.006958,210.004761 219.000381,210.000092 219.002640,210.003662 
	C220.218292,209.528000 221.431702,209.048782 222.849579,208.311935 
	C223.054077,208.054306 223.480057,208.019913 224.132935,208.017975 
	C233.139771,207.331558 241.495499,206.666733 249.844803,205.929428 
	C250.603302,205.862457 251.320694,205.330017 252.057175,205.013733 
	C252.481613,205.020370 252.906052,205.026993 253.916550,205.303802 
	C257.361267,206.050171 260.219940,206.526367 263.078613,207.002533 
	C263.496338,207.017624 263.914093,207.032700 264.776855,207.271530 
	C265.514008,207.660690 265.806122,207.826096 266.098236,207.991501 
	C266.507874,208.013641 266.917480,208.035782 267.762848,208.280334 
	C268.485809,208.673126 268.773071,208.843506 269.060303,209.013885 
	C269.060303,209.013885 269.507965,209.058060 269.852844,209.272903 
	C270.407928,209.749771 270.675629,209.922867 271.000854,210.007050 
	C271.000854,210.007050 271.000000,210.000000 271.037506,210.355560 
	C272.385284,211.465256 273.695526,212.219391 275.005798,212.973526 
	C275.005798,212.973526 275.004578,212.992096 275.113342,213.215698 
	C275.419250,213.716827 275.682556,213.898575 276.012024,213.984528 
	C276.012024,213.984528 276.004761,213.997437 276.053040,214.316864 
	C276.768707,215.084274 277.436096,215.532257 278.103485,215.980240 
	C278.386383,216.089783 278.619720,216.265259 279.002502,216.943634 
	C279.471344,217.584976 279.741150,217.789307 280.010925,217.993637 
	C280.010925,217.993637 280.000000,218.000000 280.105621,218.218185 
	C280.407166,218.715103 280.667023,218.907578 280.990753,219.013824 
	C280.990753,219.013824 281.000000,219.000000 281.096191,219.223541 
	C281.381897,219.721573 281.632446,219.918396 281.944061,220.037552 
	C284.963440,228.534424 286.455231,237.200119 286.140991,246.305496 
	C285.752014,257.577026 285.547150,268.901367 286.202637,280.148163 
	C286.751343,289.562653 286.057098,299.540833 292.818878,307.559479 
	C293.984497,308.941772 295.187683,310.292450 296.659943,311.823120 
	C296.650665,313.089539 296.354950,314.190491 296.017578,315.632996 
	C295.975922,315.974548 295.996857,315.993896 295.525574,315.987488 
	C288.042847,315.646271 281.031433,315.311523 274.019989,314.976746 
	C274.019989,314.976746 274.000000,314.998779 273.837585,314.743866 
	C273.124573,314.318542 272.574036,314.148132 272.023468,313.977722 
	C272.023468,313.977722 272.008911,313.989532 272.013672,313.977112 
M246.735992,302.015015 
	C248.836517,300.693085 250.937057,299.371155 253.684357,297.755005 
	C255.484314,296.235779 257.691864,295.006470 259.014160,293.147491 
	C264.951080,284.800934 264.569672,274.935944 264.905060,265.386688 
	C265.261292,255.245285 264.248901,254.720200 255.027893,259.034454 
	C251.271347,260.792053 247.674240,262.890442 243.279007,264.990234 
	C241.894547,265.344604 240.510086,265.698975 238.382919,266.096039 
	C234.697418,268.467407 230.339066,270.214233 227.451065,273.325806 
	C218.354691,283.126373 220.351257,298.047760 231.402069,301.882660 
	C235.746689,303.390350 241.077667,302.055817 246.735992,302.015015 
z"/>
<path fill="#E0BA8B" opacity="1.000000" stroke="none" 
	d="
M278.069397,215.665680 
	C277.436096,215.532257 276.768707,215.084274 276.060730,214.308960 
	C276.440247,213.998230 276.860382,214.014847 277.592651,214.063477 
	C277.948334,214.514038 277.991821,214.932571 278.069397,215.665680 
z"/>
<path fill="#E0BA8B" opacity="1.000000" stroke="none" 
	d="
M279.904114,217.763123 
	C279.741150,217.789307 279.471344,217.584976 279.109375,217.137329 
	C279.277191,217.106857 279.537231,217.319733 279.904114,217.763123 
z"/>
<path fill="#E0BA8B" opacity="1.000000" stroke="none" 
	d="
M280.886475,218.790787 
	C280.667023,218.907578 280.407166,218.715103 280.108826,218.212738 
	C280.335968,218.086792 280.594604,218.279678 280.886475,218.790787 
z"/>
<path fill="#E0BA8B" opacity="1.000000" stroke="none" 
	d="
M281.850891,219.811508 
	C281.632446,219.918396 281.381897,219.721573 281.089294,219.228027 
	C281.310425,219.111450 281.567566,219.303604 281.850891,219.811508 
z"/>
<path fill="#E0BA8B" opacity="1.000000" stroke="none" 
	d="
M240.456696,218.969910 
	C243.137344,218.765854 246.271225,218.576477 249.692886,218.660248 
	C246.957092,218.950455 243.933502,218.967514 240.456696,218.969910 
z"/>
<path fill="#E0BA8B" opacity="1.000000" stroke="none" 
	d="
M253.720596,247.052994 
	C253.529770,247.359314 253.029617,247.669937 252.219116,247.990173 
	C252.409607,247.685623 252.910446,247.371460 253.720596,247.052994 
z"/>
<path fill="#E0BA8B" opacity="1.000000" stroke="none" 
	d="
M251.159836,219.228394 
	C251.549362,219.150513 252.111710,219.319305 252.849426,219.730988 
	C252.460739,219.807587 251.896713,219.641327 251.159836,219.228394 
z"/>
<path fill="#E0BA8B" opacity="1.000000" stroke="none" 
	d="
M251.754517,204.721100 
	C251.320694,205.330017 250.603302,205.862457 249.844803,205.929428 
	C241.495499,206.666733 233.139771,207.331558 224.346313,208.006592 
	C232.753204,204.219528 241.973770,203.330124 251.754517,204.721100 
z"/>
<path fill="#E0BA8B" opacity="1.000000" stroke="none" 
	d="
M262.818909,206.725830 
	C260.219940,206.526367 257.361267,206.050171 254.234833,205.311279 
	C256.831116,205.515427 259.695160,205.982254 262.818909,206.725830 
z"/>
<path fill="#E0BA8B" opacity="1.000000" stroke="none" 
	d="
M274.888916,212.698441 
	C273.695526,212.219391 272.385284,211.465256 271.033630,210.356323 
	C271.679230,210.038361 272.366180,210.075195 273.379089,210.210724 
	C274.060730,211.014084 274.416382,211.718719 274.888916,212.698441 
z"/>
<path fill="#E0BA8B" opacity="1.000000" stroke="none" 
	d="
M265.966339,207.771912 
	C265.806122,207.826096 265.514008,207.660690 265.090332,207.277405 
	C265.250641,207.223785 265.542542,207.388046 265.966339,207.771912 
z"/>
<path fill="#E0BA8B" opacity="1.000000" stroke="none" 
	d="
M268.934784,208.789856 
	C268.773071,208.843506 268.485809,208.673126 268.070496,208.283936 
	C268.231384,208.232010 268.520325,208.398926 268.934784,208.789856 
z"/>
<path fill="#E0BA8B" opacity="1.000000" stroke="none" 
	d="
M270.891907,209.785828 
	C270.675629,209.922867 270.407928,209.749771 270.077698,209.277649 
	C270.304657,209.113937 270.579742,209.279633 270.891907,209.785828 
z"/>
<path fill="#E0BA8B" opacity="1.000000" stroke="none" 
	d="
M274.268127,315.267822 
	C281.031433,315.311523 288.042847,315.646271 295.521118,315.979614 
	C288.830719,315.838409 281.673492,315.698639 274.268127,315.267822 
z"/>
<path fill="#E0BA8B" opacity="1.000000" stroke="none" 
	d="
M272.183289,314.228455 
	C272.574036,314.148132 273.124573,314.318542 273.844360,314.730194 
	C273.456757,314.807373 272.899933,314.643311 272.183289,314.228455 
z"/>
<path fill="#E0BA8B" opacity="1.000000" stroke="none" 
	d="
M206.772873,220.128555 
	C206.916565,220.354568 206.737183,220.628265 206.250854,220.970383 
	C206.205933,220.812469 206.374557,220.524963 206.772873,220.128555 
z"/>
<path fill="#DDB07C" opacity="1.000000" stroke="none" 
	d="
M267.047150,307.265259 
	C267.351776,307.439850 267.663239,307.914551 267.992737,308.684692 
	C267.691833,308.508545 267.372894,308.036987 267.047150,307.265259 
z"/>
<path fill="#DDB07C" opacity="1.000000" stroke="none" 
	d="
M268.111206,309.222473 
	C268.341431,309.106110 268.594940,309.303558 268.868958,309.817078 
	C268.638733,309.931732 268.387085,309.732788 268.111206,309.222473 
z"/>
<path fill="#E0BA8B" opacity="1.000000" stroke="none" 
	d="
M218.658081,209.997925 
	C218.217758,210.670349 217.428558,211.335953 216.276459,212.002762 
	C215.968430,211.610504 216.023285,211.217056 216.167725,210.541748 
	C216.941254,210.170288 217.625229,210.080704 218.658081,209.997925 
z"/>
<path fill="#E0BA8B" opacity="1.000000" stroke="none" 
	d="
M214.854980,212.130035 
	C214.956223,212.359299 214.746780,212.612213 214.239426,212.905396 
	C214.212326,212.739563 214.413254,212.475571 214.854980,212.130035 
z"/>
<path fill="#E0BA8B" opacity="1.000000" stroke="none" 
	d="
M275.915344,213.759323 
	C275.682556,213.898575 275.419250,213.716827 275.122375,213.216721 
	C275.357880,213.071182 275.623199,213.251175 275.915344,213.759323 
z"/>
<path fill="#DAB482" opacity="1.000000" stroke="none" 
	d="
M205.769974,267.121765 
	C205.906418,267.348663 205.730957,267.603180 205.244156,267.885986 
	C205.108704,267.660095 205.283783,267.405151 205.769974,267.121765 
z"/>
<path fill="#000000" opacity="1.000000" stroke="none" 
	d="
M239.125641,266.053345 
	C240.510086,265.698975 241.894547,265.344604 244.040909,264.985352 
	C250.450211,263.144501 256.097626,261.308472 261.634399,259.508423 
	C261.450958,261.116364 260.847961,263.050232 261.084412,264.875305 
	C262.571594,276.354706 261.029724,286.976715 252.686035,296.024780 
	C251.919067,296.738556 251.441528,297.362823 250.718719,298.036926 
	C250.313080,298.132904 250.152710,298.179047 249.733002,298.168671 
	C249.297699,298.402344 249.121750,298.692566 248.710602,299.015167 
	C248.475388,299.047577 248.023483,299.193512 247.630020,299.244965 
	C245.584778,299.829346 243.966049,300.526184 242.275528,300.866943 
	C234.695877,302.394684 224.025345,296.795380 224.689865,287.569000 
	C225.319962,278.820648 229.611343,274.014618 236.252930,269.884644 
	C237.516174,269.099091 238.183411,267.355103 239.125641,266.053345 
z"/>
<path fill="#E0BA8B" opacity="1.000000" stroke="none" 
	d="
M252.975494,295.935333 
	C261.029724,286.976715 262.571594,276.354706 261.084412,264.875305 
	C260.847961,263.050232 261.450958,261.116364 261.634399,259.508423 
	C256.097626,261.308472 250.450211,263.144501 244.403702,264.907135 
	C247.674240,262.890442 251.271347,260.792053 255.027893,259.034454 
	C264.248901,254.720200 265.261292,255.245285 264.905060,265.386688 
	C264.569672,274.935944 264.951080,284.800934 259.014160,293.147491 
	C257.691864,295.006470 255.484314,296.235779 253.350281,297.887634 
	C253.016190,298.020233 252.995331,297.995331 252.998169,297.652100 
	C252.992493,296.851013 252.983994,296.393158 252.975494,295.935333 
z"/>
<path fill="#DDB07C" opacity="1.000000" stroke="none" 
	d="
M238.754272,266.074677 
	C238.183411,267.355103 237.516174,269.099091 236.252930,269.884644 
	C229.611343,274.014618 225.319962,278.820648 224.689865,287.569000 
	C224.025345,296.795380 234.695877,302.394684 242.275528,300.866943 
	C243.966049,300.526184 245.584778,299.829346 247.577789,299.543457 
	C247.265839,300.532196 246.612656,301.273895 245.959473,302.015594 
	C241.077667,302.055817 235.746689,303.390350 231.402069,301.882660 
	C220.351257,298.047760 218.354691,283.126373 227.451065,273.325806 
	C230.339066,270.214233 234.697418,268.467407 238.754272,266.074677 
z"/>
<path fill="#E0BA8B" opacity="1.000000" stroke="none" 
	d="
M246.347733,302.015320 
	C246.612656,301.273895 247.265839,300.532196 247.971252,299.492004 
	C248.023483,299.193512 248.475388,299.047577 248.924515,298.950867 
	C249.646210,298.709778 249.852448,298.500092 249.992355,298.225189 
	C250.152710,298.179047 250.313080,298.132904 251.057404,298.043701 
	C252.092682,297.998871 252.544006,297.997101 252.995331,297.995300 
	C252.995331,297.995331 253.016190,298.020233 253.026886,298.034729 
	C250.937057,299.371155 248.836517,300.693085 246.347733,302.015320 
z"/>
<path fill="#DDB07C" opacity="1.000000" stroke="none" 
	d="
M252.998169,297.652069 
	C252.544006,297.997101 252.092682,297.998871 251.302673,297.993866 
	C251.441528,297.362823 251.919067,296.738556 252.686035,296.024780 
	C252.983994,296.393158 252.992493,296.851013 252.998169,297.652069 
z"/>
<path fill="#DDB07C" opacity="1.000000" stroke="none" 
	d="
M249.733002,298.168671 
	C249.852448,298.500092 249.646210,298.709778 249.159729,298.918457 
	C249.121750,298.692566 249.297699,298.402344 249.733002,298.168671 
z"/>
</svg>